<?xml version="1.0" encoding="utf-8"?>
<!-- Generator: Adobe Illustrator 23.0.1, SVG Export Plug-In . SVG Version: 6.00 Build 0)  -->
<svg version="1.1" id="Camada_1" xmlns="http://www.w3.org/2000/svg" xmlns:xlink="http://www.w3.org/1999/xlink" x="0px" y="0px"
	 viewBox="0 0 1417.3 425.2" style="enable-background:new 0 0 1417.3 425.2;" xml:space="preserve">
<style type="text/css">
	.st0{fill-rule:evenodd;clip-rule:evenodd;fill:#FFFFFF;}
	.st1{fill-rule:evenodd;clip-rule:evenodd;fill:#CD1F26;}
</style>
<g>
	<path class="st0" d="M441.6,174h-56.7v18h35c-3,10.1-15.3,18-27.3,18c-16.7,0-30.4-14.4-30.4-30.5c0-16.2,13.7-30.4,30.4-30.4
		c10.1,0,19.2,6.3,25,14.4l17.4-10.2c-9.2-13.8-25-22.8-42.4-22.8c-27.8,0-50.5,22.1-50.5,49c0,27,22.7,49,50.5,49
		c25.3,0,46.9-17.2,49-41.4c0.1-1.9,0.3-3.8,0.3-5.4C441.8,179.5,441.7,176.6,441.6,174L441.6,174z M661.7,172.8l64.7,56.7v-97.3
		h-20.3v54.5l-64.6-57.6v97.5h20.1V172.8L661.7,172.8z M867.5,202.3l-18.8-7.4c-5.6,8.3-15.3,15-25.6,15
		c-16.7,0-30.1-14.4-30.1-30.5c0-16.2,13.5-30.4,30.1-30.4c10.4,0,20,6.6,25.6,14.7l18.8-7.4c-9-15.4-25.6-25.9-44.5-25.9
		c-27.8,0-50.5,22-50.5,48.9c0,27,22.7,49,50.5,49C841.8,228.4,858.5,217.9,867.5,202.3L867.5,202.3z M915.1,228.3
		c25.4,0,41.8-15.8,41.8-39.9v-56.1h-20.3v56.1c0,17.8-13.6,22.4-21.5,22.4c-8.2,0-21.8-4.5-21.8-22.4v-56.1H873v56.1
		C873,212.5,889.5,228.3,915.1,228.3L915.1,228.3z M989.8,226.6v-29.5h13.8c7.7,10.3,14.7,19.8,22.4,29.5h24.2
		c-7.6-10.1-16.2-21.5-24.2-31.7c11.7-5,19.1-16.3,19.1-30c0-19.4-13.7-32.8-33.8-32.8h-41.7v94.5L989.8,226.6L989.8,226.6z
		 M989.8,179.4v-29.6h21.5c11.9,0,13.7,10.2,13.7,15.1c0,9.8-7.4,14.5-13.7,14.5L989.8,179.4L989.8,179.4z M1061.3,198l-10.8,15.6
		c8.7,7.5,22.1,14.7,42.3,14.7c22.2,0,37.3-9.7,37.3-29.3c0-25.3-24.2-27.3-39.5-30.5c-8.5-1.8-18.6-3.4-18.6-10.1
		c0-7.5,10.3-9.3,16.2-9.3c9.1,0,18.5,3.9,26.5,9.7l11.3-15.5c-10.3-7.6-20.6-12.7-37-12.7c-16.5,0-37.2,6.1-37.2,28.6
		c0,22.6,25.4,27,37.2,28.9c10.9,1.9,20.9,3.9,20.9,11.4c0,5.3-6.2,10.5-17.3,10.5C1081.8,210,1068.1,203.7,1061.3,198L1061.3,198z
		 M1182.6,228.4c27.9,0,50.6-22,50.6-49.1c0-26.9-22.7-49-50.6-49c-27.8,0-50.4,22.1-50.4,49
		C1132.2,206.4,1154.7,228.4,1182.6,228.4L1182.6,228.4z M1182.6,148.9c16.8,0,30.3,14.2,30.3,30.4c0,16.3-13.5,30.6-30.3,30.6
		c-16.7,0-30.3-14.4-30.3-30.6C1152.3,163.1,1165.9,148.9,1182.6,148.9L1182.6,148.9z M1247.8,198l-10.8,15.6
		c8.7,7.5,22.1,14.7,42.3,14.7c22.2,0,37.3-9.7,37.3-29.3c0-25.3-24.2-27.3-39.5-30.5c-8.5-1.8-18.6-3.4-18.6-10.1
		c0-7.5,10.3-9.3,16.2-9.3c9.1,0,18.5,3.9,26.5,9.7l11.3-15.5c-10.3-7.6-20.6-12.7-37-12.7c-16.5,0-37.2,6.1-37.2,28.6
		c0,22.6,25.4,27,37.2,28.9c10.9,1.9,20.9,3.9,20.9,11.4c0,5.3-6.2,10.5-17.3,10.5C1268.3,210,1254.6,203.7,1247.8,198z"/>
	<path class="st0" d="M473,226.6v-29.5h13.8c7.7,10.3,14.7,19.8,22.4,29.5h24.2c-7.6-10.1-16.2-21.5-24.2-31.7
		c11.7-5,19.1-16.3,19.1-30c0-19.4-13.7-32.8-33.8-32.8h-41.7v94.5L473,226.6L473,226.6z M473,179.4v-29.6h21.5
		c11.9,0,13.7,10.2,13.7,15.1c0,9.8-7.4,14.5-13.7,14.5L473,179.4L473,179.4z M535.3,226.6h22.3l7.2-14.5h43.7l7.4,14.5h22.2
		l-51.4-97.5L535.3,226.6L535.3,226.6z M574.8,194.6l11.9-24.7l12,24.7H574.8z"/>
	<path class="st1" d="M332.7,221.1c0,61.5-49.8,111.3-111.3,111.3s-111.3-49.8-111.3-111.3c0-61.5,49.8-111.3,111.3-111.3
		C282.8,109.9,332.7,159.7,332.7,221.1z"/>
	<path class="st0" d="M220.6,244.8L221,208l93.7,0.9c0.1,1.2,0.3,2.4,0.5,4.1c0.4,2.5,0.3,3.4,0.5,6.2c2.1,26.6-8.5,53.5-24.7,70
		c-16.2,16.5-38.9,24.6-68,24.3c-14.3-0.1-27-2.4-38.1-6.8c-11.1-4.4-21-11-29.7-19.9c-8.3-8.5-14.7-18.5-19.2-30
		c-4.5-11.5-6.7-23.5-6.6-36.1c0.1-13.1,2.5-25.1,7.1-36c4.6-10.9,11.4-20.7,20.4-29.4c8.9-8.5,19.2-14.8,30.7-19.1
		c11.5-4.3,23.9-6.4,37.2-6.2c17.3,0.2,33.2,2.6,45.8,10.6c30.8,19.4,39.3,47.6,39.8,49.8l-48.4,0.3c-4.9-6.8-10.5-11.9-16.7-15.3
		c-6.2-3.4-13.2-5.1-20.9-5.2c-14.4-0.1-25.8,4.5-34.2,14c-8.4,9.5-12.7,22.5-12.8,39c-0.2,16.7,3.9,29.9,12.1,39.5
		c8.2,9.7,19.5,14.6,33.9,14.7c12.2,0.1,22.4-2.8,30.6-8.7c8.2-5.9,13.1-13.7,14.5-23.6L220.6,244.8z"/>
	<path class="st1" d="M386.4,238.7c-12.2,0-22.7,4.3-31.4,12.9c-8.6,8.6-13,19-13,31c0,12.1,4.3,22.4,13,30.9
		c8.6,8.4,19.1,12.7,31.4,12.7c12.2,0,22.7-4.2,31.4-12.7c8.7-8.5,13-18.8,13-30.9c0-12-4.4-22.4-13-31
		C409,243,398.6,238.7,386.4,238.7L386.4,238.7z M386.4,256.2c7.3,0,13.6,2.6,18.8,7.7c5.3,5.2,7.9,11.4,7.9,18.6
		c0,7.3-2.6,13.5-7.9,18.6c-5.3,5.1-11.5,7.6-18.8,7.6c-7.4,0-13.7-2.6-18.8-7.6c-5.2-5.1-7.8-11.3-7.8-18.6
		c0-7.2,2.6-13.4,7.8-18.6C372.7,258.8,379,256.2,386.4,256.2L386.4,256.2z M435.3,237.5v88.3h17.5v-48l52.7,49.6v-88.4h-17.6v48
		L435.3,237.5L435.3,237.5z M513.4,239.3v86.4H566v-17.2h-35.1v-69.1L513.4,239.3L513.4,239.3z M570.7,325.7h17.5v-86.4h-17.5V325.7
		L570.7,325.7z M596,237.5v88.3h17.5v-48l52.7,49.6v-88.4h-17.6v48L596,237.5L596,237.5z M674.1,239.1v86.7h52.7v-17.2h-35.1v-17.5
		H718v-17.3h-26.3v-17.4h35.1v-17.3L674.1,239.1L674.1,239.1z"/>
</g>
</svg>
